<svg width="132" height="30" viewBox="0 0 132 30" fill="none" xmlns="http://www.w3.org/2000/svg">
<g clip-path="url(#clip0_1792_17837)">
<path d="M76.0606 8.12706H72.946C72.6418 8.12706 72.4724 8.33093 72.4379 8.63518L72.336 10.1925C71.0829 8.77006 69.3907 7.75537 67.2923 7.75537C62.6549 7.75537 59.2705 11.6149 59.2705 16.4578C59.2705 21.3007 62.6549 25.1603 67.2923 25.1603C69.4581 25.1603 71.1174 24.1785 72.3014 22.7906L72.4363 24.213C72.4708 24.5173 72.6386 24.7212 72.9444 24.7212H76.0591C76.3633 24.7212 76.5672 24.5173 76.5672 24.213V8.63518C76.5672 8.33093 76.3633 8.12706 76.0591 8.12706H76.0606ZM67.835 21.0953C65.3633 21.0953 63.5692 19.0973 63.5692 16.4233C63.5692 13.7494 65.3633 11.8188 67.835 11.8188C70.3066 11.8188 72.0662 13.9188 72.0662 16.4233C72.0662 18.9279 70.2721 21.0953 67.835 21.0953Z" fill="#1C1C1C"/>
<path d="M80.1214 0H83.5732C83.8539 0 84.0813 0.227402 84.0813 0.508127V24.2097C84.0813 24.4904 83.8539 24.7179 83.5732 24.7179H80.1214C79.8407 24.7179 79.6133 24.4904 79.6133 24.2097V0.508127C79.6133 0.227402 79.8407 0 80.1214 0Z" fill="#1C1C1C"/>
<path d="M87.9876 0H91.441C91.7217 0 91.9491 0.227402 91.9491 0.508127V24.2097C91.9491 24.4904 91.7217 24.7179 91.441 24.7179H87.9876C87.7069 24.7179 87.4795 24.4904 87.4795 24.2097V0.508127C87.4795 0.227402 87.7069 0 87.9876 0Z" fill="#1C1C1C"/>
<path d="M104.292 7.75364C102.329 7.75364 100.704 8.63345 99.4853 9.92102V0.508127C99.4853 0.203878 99.2814 0 98.9771 0H95.5238C95.2195 0 95.0156 0.203878 95.0156 0.508127V24.2097C95.0156 24.514 95.2179 24.7179 95.5238 24.7179H98.6384C98.9426 24.7179 99.112 24.514 99.1465 24.2097L99.2814 22.7873C100.467 24.1752 102.125 25.157 104.292 25.157C108.93 25.157 112.315 21.2974 112.315 16.4545C112.315 11.6116 108.93 7.75207 104.292 7.75207V7.75364ZM103.751 21.0951C101.314 21.0951 99.5198 18.9277 99.5198 16.4232C99.5198 13.9186 101.314 11.8186 103.751 11.8186C106.188 11.8186 108.017 13.7822 108.017 16.4232C108.017 19.0642 106.223 21.0951 103.751 21.0951Z" fill="#1C1C1C"/>
<path d="M117.153 0.034668C115.765 0.034668 114.682 1.15129 114.682 2.5063C114.682 3.8613 115.765 4.97792 117.153 4.97792C118.541 4.97792 119.59 3.8613 119.59 2.5063C119.59 1.15129 118.507 0.034668 117.153 0.034668Z" fill="#1C1C1C"/>
<path d="M115.427 8.12695H118.878C119.159 8.12695 119.387 8.35436 119.387 8.63508V24.2114C119.387 24.4921 119.159 24.7195 118.878 24.7195H115.425C115.144 24.7195 114.917 24.4921 114.917 24.2114V8.63508C114.917 8.35436 115.144 8.12695 115.425 8.12695H115.427Z" fill="#1C1C1C"/>
<path d="M131.493 8.12706H129.123V3.55549C129.123 3.25124 128.921 3.04736 128.615 3.04736H125.161C124.857 3.04736 124.653 3.25124 124.653 3.55549V8.12706H122.284C121.979 8.12706 121.775 8.33094 121.775 8.63519V11.2762C121.775 11.5804 121.979 11.7843 122.284 11.7843H124.653V24.2115C124.653 24.5157 124.856 24.7196 125.161 24.7196H128.615C128.919 24.7196 129.123 24.5157 129.123 24.2115V11.7828H131.493C131.797 11.7828 132.001 11.5789 132.001 11.2746V8.63362C132.001 8.32937 131.798 8.12549 131.493 8.12549V8.12706Z" fill="#1C1C1C"/>
<path d="M58.295 7.95128H54.9357C54.7161 7.95128 54.5279 8.10026 54.4778 8.31512L51.7379 20.0914L48.8288 8.30885C48.777 8.09869 48.5888 7.95128 48.3724 7.95128H44.4156C44.1992 7.95128 44.0125 8.09713 43.9592 8.30728L40.992 20.1259L38.2459 8.31512C38.1957 8.10026 38.0075 7.95128 37.788 7.95128H34.1888C34.0398 7.95128 33.9018 8.02028 33.8124 8.13947C33.723 8.25866 33.6947 8.41079 33.7371 8.5535L38.4514 24.5799C38.5094 24.779 38.696 24.9171 38.903 24.9171H42.9932C43.2064 24.9171 43.3946 24.7728 43.448 24.5658L46.2709 13.7493L49.0938 24.5658C49.1471 24.7728 49.3353 24.9171 49.5486 24.9171H53.6089C53.8159 24.9171 54.0026 24.7775 54.0606 24.5783L58.7451 8.55193C58.7874 8.40765 58.7592 8.25709 58.6698 8.1379C58.5804 8.01871 58.4424 7.94971 58.2934 7.94971L58.295 7.95128Z" fill="#1C1C1C"/>
</g>
<path d="M12.4283 1.41162L0 8.49226V13.0108L12.3338 5.8836L14.9801 7.32768L6.19052 11.9394L10.4908 14.3152L18.7133 9.61026V4.99852L12.4283 1.41162Z" fill="#0D99FF"/>
<path d="M24.81 22.5594V8.3981L20.8405 6.16211L20.7932 20.2768L18.3359 21.7675L18.6667 11.985L14.4609 14.4539V23.8637L18.5249 26.1463L24.81 22.5594Z" fill="#0D99FF"/>
<path d="M0 22.5601L12.4283 29.6407L16.3978 27.3582L4.01675 20.2309L3.92224 17.3894L12.3338 22.6067L12.2865 17.762L4.064 13.0571L0 15.3863V22.5601Z" fill="#0D99FF"/>
<defs>
<clipPath id="clip0_1792_17837">
<rect width="98.2817" height="25.157" fill="white" transform="translate(33.7188)"/>
</clipPath>
</defs>
</svg>
